<svg xmlns="http://www.w3.org/2000/svg" width="400" height="220" viewBox="0 0 400 220" role="img" aria-labelledby="t2"><title id="t2">Graphe orienté des coups possibles aux échecs</title>
<rect fill="#fff" width="400" height="220"/>
<circle cx="40" cy="110" r="14" fill="#2d6a4f" stroke="#1b4332"/><circle cx="140" cy="60" r="12" fill="#457b9d" stroke="#1d3557"/><circle cx="140" cy="160" r="12" fill="#457b9d" stroke="#1d3557"/><circle cx="260" cy="40" r="10" fill="#e63946" stroke="#9d0208"/><circle cx="260" cy="110" r="10" fill="#e63946" stroke="#9d0208"/><circle cx="260" cy="180" r="10" fill="#e63946" stroke="#9d0208"/><circle cx="360" cy="70" r="8" fill="#6c757d"/><circle cx="360" cy="150" r="8" fill="#6c757d"/>
<path d="M54 110 L128 60" stroke="#333" stroke-width="2" marker-end="url(#a)"/><path d="M54 110 L128 160" stroke="#333" stroke-width="2" marker-end="url(#a)"/><path d="M152 60 L250 40" stroke="#333" stroke-width="1.5" marker-end="url(#a)"/><path d="M152 60 L250 110" stroke="#333" stroke-width="1.5" marker-end="url(#a)"/><path d="M152 160 L250 110" stroke="#333" stroke-width="1.5" marker-end="url(#a)"/><path d="M152 160 L250 180" stroke="#333" stroke-width="1.5" marker-end="url(#a)"/>
<defs><marker id="a" markerWidth="8" markerHeight="8" refX="6" refY="4" orient="auto"><path d="M0 0 L8 4 L0 8 z" fill="#333"/></marker></defs>
<text x="200" y="210" text-anchor="middle" font-size="11" fill="#444" font-family="system-ui,sans-serif">Position → coups → nouvelles positions</text>
</svg>
