<svg xmlns="http://www.w3.org/2000/svg" viewBox="-121.5 0 868 868">
  <style>
    .bg { fill: #fcfaf6; }
    .fg { fill: #1e1e1e; }
    @media (prefers-color-scheme: dark) {
      .bg { fill: #1e1e1b; }
      .fg { fill: #f0ebe0; }
    }
  </style>
  <rect class="bg" x="-121.5" y="0" width="868" height="868" rx="69"/>
  <g transform="scale(-1,1) translate(-625,0)">
  <path class="fg" fill-rule="evenodd" d="M 213.5,-0.5 C 218.833,-0.5 224.167,-0.5 229.5,-0.5C 238.357,2.01168 246.524,6.01168 254,11.5C 254.414,11.0426 254.914,10.7093 255.5,10.5C 256.167,11.8333 256.833,13.1667 257.5,14.5C 258.086,14.2907 258.586,13.9574 259,13.5C 259.465,14.9308 260.299,16.0975 261.5,17C 267.347,21.0909 273.013,25.4242 278.5,30C 279.449,30.6172 280.282,30.4506 281,29.5C 284.458,34.8043 289.291,37.8043 295.5,38.5C 296.037,41.0359 297.37,43.0359 299.5,44.5C 297.972,44.5173 297.472,45.184 298,46.5C 313.551,56.2573 329.717,65.0907 346.5,73C 355.3,78.3025 363.967,83.8025 372.5,89.5C 373.562,88.5754 373.562,87.5754 372.5,86.5C 374.062,86.7329 375.395,87.3995 376.5,88.5C 375.909,89.1515 375.243,89.8182 374.5,90.5C 435.913,135.222 477.747,194.222 500,267.5C 503.601,282.183 506.935,296.849 510,311.5C 511.724,322.397 510.224,332.73 505.5,342.5C 505.439,344.721 506.105,345.054 507.5,343.5C 505.989,347.185 504.489,350.852 503,354.5C 502.333,353.167 501.667,353.167 501,354.5C 499.333,357.833 497.667,361.167 496,364.5C 495.667,364.167 495.333,363.833 495,363.5C 490.997,370.808 486.664,377.808 482,384.5C 475.616,392.711 469.449,401.044 463.5,409.5C 463.539,408.244 463.039,407.244 462,406.5C 447.654,428.509 433.32,450.509 419,472.5C 418.793,474.761 419.626,475.095 421.5,473.5C 421.5,474.167 421.5,474.833 421.5,475.5C 414.158,486.399 407.158,497.066 400.5,507.5C 399.833,507.5 399.5,507.833 399.5,508.5C 391.973,520.701 383.64,532.368 374.5,543.5C 366.434,552.902 357.434,561.235 347.5,568.5C 347.719,567.325 347.386,566.325 346.5,565.5C 331.048,575.243 314.715,577.077 297.5,571C 294.161,569.114 292.827,566.281 293.5,562.5C 293.607,559.433 294.107,556.433 295,553.5C 311.701,527.578 330.201,503.078 350.5,480C 348.505,479.387 346.838,479.887 345.5,481.5C 347.131,477.879 349.465,474.879 352.5,472.5C 352.08,474.094 351.414,475.594 350.5,477C 350.611,478.722 351.111,478.888 352,477.5C 358.194,468.958 364.027,460.125 369.5,451C 372.763,443.811 374.263,436.311 374,428.5C 373.399,425.363 372.399,422.363 371,419.5C 370.583,420.756 369.75,421.423 368.5,421.5C 368.068,420.29 367.401,419.29 366.5,418.5C 360.315,413.106 352.982,410.439 344.5,410.5C 336.626,410.954 328.959,412.454 321.5,415C 320.141,416.204 319.141,417.704 318.5,419.5C 316.776,418.339 315.11,418.505 313.5,420C 306.305,427.859 299.138,435.693 292,443.5C 291.51,444.793 291.343,446.127 291.5,447.5C 289.133,448.164 287.133,449.497 285.5,451.5C 276.129,462.762 266.129,474.262 255.5,486C 255.833,486.333 256.167,486.667 256.5,487C 254.03,488.793 251.53,490.627 249,492.5C 248.138,494.087 247.471,495.754 247,497.5C 245.333,498.5 243.667,499.5 242,500.5C 240.757,503.576 238.923,506.243 236.5,508.5C 235.527,510.139 234.194,511.473 232.5,512.5C 232.511,510.983 233.177,509.816 234.5,509C 233.365,508.251 232.365,508.417 231.5,509.5C 216.519,527.976 202.519,547.143 189.5,567C 189.93,567.965 190.596,568.465 191.5,568.5C 187.793,574.567 184.459,580.9 181.5,587.5C 182.428,588.768 182.595,590.101 182,591.5C 181.333,592.833 180.667,592.833 180,591.5C 179.066,592.858 178.232,594.192 177.5,595.5C 177.66,593.801 177.494,592.134 177,590.5C 166.995,617.213 163.328,644.879 166,673.5C 166.667,674.833 167.333,674.833 168,673.5C 168.21,671.942 168.71,670.609 169.5,669.5C 169.5,672.5 169.5,675.5 169.5,678.5C 168.883,678.389 168.383,678.056 168,677.5C 167.502,684.528 167.835,691.528 169,698.5C 173.378,717.719 179.378,736.386 187,754.5C 187.833,755.5 188.667,756.5 189.5,757.5C 190.298,757.043 190.631,756.376 190.5,755.5C 192.071,757.635 193.404,759.968 194.5,762.5C 192.665,761.878 191.498,760.544 191,758.5C 190.333,759.833 190.333,761.167 191,762.5C 200.501,780.848 211.501,798.181 224,814.5C 233.773,826.393 243.773,838.06 254,849.5C 258.782,863.05 254.282,867.884 240.5,864C 238.623,862.815 236.623,861.815 234.5,861C 216.775,848.276 198.775,835.943 180.5,824C 170.684,815.241 161.018,806.241 151.5,797C 150.668,796.312 150.002,796.479 149.5,797.5C 150.826,798.642 151.826,799.976 152.5,801.5C 151.603,800.402 150.77,800.402 150,801.5C 148.723,799.253 147.223,797.253 145.5,795.5C 141.936,792.578 138.936,789.078 136.5,785C 134.5,783.667 132.5,782.333 130.5,781C 130.833,780.667 131.167,780.333 131.5,780C 129.178,776.782 126.345,774.282 123,772.5C 123.979,770.721 123.646,769.055 122,767.5C 121.851,770.279 121.017,770.779 119.5,769C 120.791,766.91 120.124,765.576 117.5,765C 117.833,764.667 118.167,764.333 118.5,764C 117.512,761.833 116.179,760 114.5,758.5C 115.528,757.926 116.528,757.593 117.5,757.5C 92.3026,721.743 76.4693,682.076 70,638.5C 64.4041,583.111 77.0708,532.445 108,486.5C 116.623,474.247 125.957,462.58 136,451.5C 136.688,450.668 136.521,450.002 135.5,449.5C 133.114,450.988 132.448,450.655 133.5,448.5C 134.833,447.833 136.167,447.167 137.5,446.5C 138.552,446.649 139.552,446.483 140.5,446C 162.059,424.433 185.392,405.1 210.5,388C 210.957,387.586 211.291,387.086 211.5,386.5C 210.8,386.213 210.133,385.88 209.5,385.5C 209.5,384.5 209.5,383.5 209.5,382.5C 211.514,382.608 213.18,381.942 214.5,380.5C 214.938,380.435 215.272,380.601 215.5,381C 213.025,382.743 213.025,383.743 215.5,384C 238.549,362.078 253.883,335.578 261.5,304.5C 261.36,302.97 260.693,301.97 259.5,301.5C 259.5,300.167 259.5,298.833 259.5,297.5C 260.794,301.223 261.961,301.223 263,297.5C 263.667,291.5 263.667,285.5 263,279.5C 261.562,275.225 258.729,272.559 254.5,271.5C 246.746,272.918 239.413,275.418 232.5,279C 210.934,286.89 188.934,292.89 166.5,297C 163.5,298 160.5,299 157.5,300C 159.134,300.494 160.801,300.66 162.5,300.5C 163.562,301.575 163.562,302.575 162.5,303.5C 160.208,302.691 158.041,302.357 156,302.5C 155.085,303.328 154.419,304.328 154,305.5C 153.081,303.761 151.915,303.094 150.5,303.5C 151.23,301.955 152.563,301.122 154.5,301C 144.442,299.469 135.942,302.302 129,309.5C 125.426,316.317 122.093,323.317 119,330.5C 110.366,344.461 98.199,353.961 82.5,359C 83.756,359.417 84.4226,360.25 84.5,361.5C 80.7213,363.356 76.5547,364.356 72,364.5C 69.05,364.432 66.3834,363.766 64,362.5C 61.8656,365.084 60.0323,364.75 58.5,361.5C 57.7025,361.957 57.3691,362.624 57.5,363.5C 55.9705,362.933 54.4705,362.267 53,361.5C 52.6667,361.833 52.3333,362.167 52,362.5C 51.5439,361.256 52.0439,360.423 53.5,360C 50.8232,359.751 48.4899,358.751 46.5,357C 45.2506,356.26 44.2506,356.427 43.5,357.5C 42.0176,355.085 40.0176,354.418 37.5,355.5C 36.8503,353.816 35.8503,352.483 34.5,351.5C 30.9231,348.685 26.9231,346.518 22.5,345C 23.1667,344.667 23.8333,344.333 24.5,344C 22.6667,342.833 20.8333,341.667 19,340.5C 18.586,340.957 18.086,341.291 17.5,341.5C 16.2888,340.726 16.2888,339.893 17.5,339C 16.5509,338.383 15.7175,338.549 15,339.5C 15.3112,338.065 15.1445,336.732 14.5,335.5C 12.6414,333.808 10.6414,332.308 8.5,331C 9.53478,329.493 9.36812,327.993 8,326.5C 5.83282,324.17 4.16615,321.503 3,318.5C 2.0805,318.07 1.24717,317.736 0.5,317.5C 1.02527,316.808 1.69194,316.308 2.5,316C 1.26714,312.123 0.267136,308.289 -0.5,304.5C -0.5,301.167 -0.5,297.833 -0.5,294.5C -0.166667,294.5 0.166667,294.5 0.5,294.5C 1.0669,298.497 1.90023,302.497 3,306.5C 3.10454,303.527 2.93788,300.527 2.5,297.5C 3.87626,286.075 8.04293,275.742 15,266.5C 29.1455,250.689 44.3122,235.855 60.5,222C 58.4634,222.483 56.4634,223.316 54.5,224.5C 56.6,221.896 58.9334,219.396 61.5,217C 61.1667,216.667 60.8333,216.333 60.5,216C 61.4368,215.308 62.1034,215.475 62.5,216.5C 61.3228,218.103 61.4894,219.436 63,220.5C 86.7432,200.092 109.243,178.259 130.5,155C 130.167,154.833 129.833,154.667 129.5,154.5C 127.422,156.92 125.088,158.92 122.5,160.5C 126.629,154.967 131.295,149.967 136.5,145.5C 138.566,141.597 141.566,138.43 145.5,136C 145.167,135.667 144.833,135.333 144.5,135C 146.734,133.25 149.068,131.75 151.5,130.5C 150.542,131.962 149.376,133.295 148,134.5C 147.333,135.5 147.333,136.5 148,137.5C 172.083,112.088 196.083,86.7543 220,61.5C 223.555,56.2661 223.055,51.4328 218.5,47C 217.184,46.4719 216.517,46.9719 216.5,48.5C 214.578,47.2434 212.578,46.0768 210.5,45C 211.791,43.7083 211.791,42.5417 210.5,41.5C 207.615,37.9467 205.615,33.9467 204.5,29.5C 203.127,29.6567 201.793,29.49 200.5,29C 200.323,23.4187 200.823,17.5854 202,11.5C 203.481,8.04386 205.148,4.71053 207,1.5C 207.333,1.83333 207.667,2.16667 208,2.5C 209.876,1.39127 211.709,0.391268 213.5,-0.5 Z"/>
  <path class="fg" fill-rule="evenodd" d="M 299.5,44.5 C 302.057,45.1878 304.391,46.3545 306.5,48C 308.112,48.7203 309.612,48.5536 311,47.5C 312.841,49.1591 314.008,51.1591 314.5,53.5C 319.146,55.4611 323.813,57.4611 328.5,59.5C 332.996,62.0049 337.496,64.6716 342,67.5C 342.414,67.0426 342.914,66.7093 343.5,66.5C 348.194,71.5167 353.861,75.0167 360.5,77C 364.631,80.0813 368.631,83.248 372.5,86.5C 373.562,87.5754 373.562,88.5754 372.5,89.5C 363.967,83.8025 355.3,78.3025 346.5,73C 329.717,65.0907 313.551,56.2573 298,46.5C 297.472,45.184 297.972,44.5173 299.5,44.5 Z"/>
  <path class="fg" fill-rule="evenodd" d="M 151.5,130.5 C 158.494,122.506 165.494,114.506 172.5,106.5C 180.42,99.4234 187.42,92.2568 193.5,85C 196.721,81.7792 199.554,78.9459 202,76.5C 205.207,74.2949 207.207,71.2949 208,67.5C 214.066,64.6338 217.899,60.3005 219.5,54.5C 217.962,52.7567 216.962,50.7567 216.5,48.5C 216.517,46.9719 217.184,46.4719 218.5,47C 223.055,51.4328 223.555,56.2661 220,61.5C 196.083,86.7543 172.083,112.088 148,137.5C 147.333,136.5 147.333,135.5 148,134.5C 149.376,133.295 150.542,131.962 151.5,130.5 Z"/>
  <path class="fg" fill-rule="evenodd" d="M 62.5,216.5 C 68.063,211.143 73.8963,206.143 80,201.5C 79.7374,200.049 79.9041,198.716 80.5,197.5C 82.9154,196.695 85.2487,195.695 87.5,194.5C 89.215,192.118 91.215,190.118 93.5,188.5C 102.856,179.793 111.856,170.627 120.5,161C 121.094,160.536 121.761,160.369 122.5,160.5C 125.088,158.92 127.422,156.92 129.5,154.5C 129.833,154.667 130.167,154.833 130.5,155C 109.243,178.259 86.7432,200.092 63,220.5C 61.4894,219.436 61.3228,218.103 62.5,216.5 Z"/>
  <path class="fg" fill-rule="evenodd" d="M 376.5,88.5 C 392.205,99.0967 406.205,110.93 418.5,124C 419.878,125.713 421.545,127.047 423.5,128C 423.167,128.333 422.833,128.667 422.5,129C 424.217,130.559 426.217,131.392 428.5,131.5C 432.639,138.988 437.972,145.655 444.5,151.5C 444.291,152.086 443.957,152.586 443.5,153C 446.374,154.299 448.207,156.465 449,159.5C 449.667,158.167 450.333,158.167 451,159.5C 451.617,160.449 451.451,161.282 450.5,162C 453.261,164.344 455.428,167.178 457,170.5C 458.067,171.191 459.234,171.691 460.5,172C 459.692,172.308 459.025,172.808 458.5,173.5C 461.349,176.553 463.682,179.886 465.5,183.5C 472.618,195.226 479.118,207.559 485,220.5C 485.671,221.252 486.504,221.586 487.5,221.5C 487.082,222.222 486.416,222.722 485.5,223C 486.542,224.918 487.708,226.751 489,228.5C 493.023,239.868 497.023,251.201 501,262.5C 501.654,261.304 502.154,261.304 502.5,262.5C 501.572,263.768 501.405,265.101 502,266.5C 502.983,268.448 504.15,270.282 505.5,272C 504.978,272.561 504.645,273.228 504.5,274C 509.796,290.03 513.129,306.53 514.5,323.5C 514.13,330.948 511.796,337.615 507.5,343.5C 506.105,345.054 505.439,344.721 505.5,342.5C 510.224,332.73 511.724,322.397 510,311.5C 506.935,296.849 503.601,282.183 500,267.5C 477.747,194.222 435.913,135.222 374.5,90.5C 375.243,89.8182 375.909,89.1515 376.5,88.5 Z"/>
  <path class="fg" fill-rule="evenodd" d="M 0.5,294.5 C 0.832537,287.67 2.4992,281.17 5.5,275C 4.50559,272.082 5.00559,271.916 7,274.5C 9.17816,270.806 11.3448,267.139 13.5,263.5C 17.2061,261.095 19.7061,257.762 21,253.5C 21.3333,253.833 21.6667,254.167 22,254.5C 24.5,250.667 27.6667,247.5 31.5,245C 31.1667,244.667 30.8333,244.333 30.5,244C 33.4559,241.669 36.4559,239.335 39.5,237C 38.7417,235.636 39.2417,234.469 41,233.5C 41.7175,234.451 42.5509,234.617 43.5,234C 45.3939,232.899 46.0606,231.566 45.5,230C 46.448,229.517 47.448,229.351 48.5,229.5C 48.3505,228.448 48.5172,227.448 49,226.5C 49.3333,226.833 49.6667,227.167 50,227.5C 51.129,225.859 52.629,224.859 54.5,224.5C 56.4634,223.316 58.4634,222.483 60.5,222C 44.3122,235.855 29.1455,250.689 15,266.5C 8.04293,275.742 3.87626,286.075 2.5,297.5C 2.93788,300.527 3.10454,303.527 3,306.5C 1.90023,302.497 1.0669,298.497 0.5,294.5 Z"/>
  <path class="fg" fill-rule="evenodd" d="M 259.5,297.5 C 259.5,297.167 259.5,296.833 259.5,296.5C 260.977,292.645 260.643,288.812 258.5,285C 259.167,284.333 259.833,283.667 260.5,283C 259.922,281.189 259.422,279.355 259,277.5C 258.376,282.236 257.21,282.57 255.5,278.5C 257.115,276.249 256.448,274.916 253.5,274.5C 252.201,275.09 251.368,276.09 251,277.5C 250.692,276.692 250.192,276.025 249.5,275.5C 247.974,275.994 246.641,276.661 245.5,277.5C 236.024,280.565 226.69,284.065 217.5,288C 209.892,290.152 202.226,292.152 194.5,294C 193.809,295.067 193.309,296.234 193,297.5C 192.333,294.833 191.667,294.833 191,297.5C 190.282,296.549 189.449,296.383 188.5,297C 189.711,297.893 189.711,298.726 188.5,299.5C 186.34,299.189 184.007,298.522 181.5,297.5C 180.274,297.52 179.274,297.853 178.5,298.5C 174.613,298.646 170.946,299.313 167.5,300.5C 165.833,300.5 164.167,300.5 162.5,300.5C 160.801,300.66 159.134,300.494 157.5,300C 160.5,299 163.5,298 166.5,297C 188.934,292.89 210.934,286.89 232.5,279C 239.413,275.418 246.746,272.918 254.5,271.5C 258.729,272.559 261.562,275.225 263,279.5C 263.667,285.5 263.667,291.5 263,297.5C 261.961,301.223 260.794,301.223 259.5,297.5 Z"/>
  <path class="fg" fill-rule="evenodd" d="M 150.5,303.5 C 148.616,303.712 147.283,304.712 146.5,306.5C 144.105,303.846 142.105,304.179 140.5,307.5C 140.167,306.833 139.833,306.167 139.5,305.5C 138.167,306.167 136.833,306.833 135.5,307.5C 132.451,310.899 129.951,314.232 128,317.5C 127.265,319.871 126.432,322.205 125.5,324.5C 126.682,326.467 126.015,327.8 123.5,328.5C 114.601,344.435 101.601,355.435 84.5,361.5C 84.4226,360.25 83.756,359.417 82.5,359C 98.199,353.961 110.366,344.461 119,330.5C 122.093,323.317 125.426,316.317 129,309.5C 135.942,302.302 144.442,299.469 154.5,301C 152.563,301.122 151.23,301.955 150.5,303.5 Z"/>
  <path class="fg" fill-rule="evenodd" d="M 560.5,389.5 C 559.71,388.391 559.21,387.058 559,385.5C 550.842,416.127 538.342,444.794 521.5,471.5C 522.243,472.182 522.909,472.849 523.5,473.5C 521.389,478.073 518.555,482.073 515,485.5C 510.38,493.346 505.38,500.346 500,506.5C 498.459,508.477 497.959,510.477 498.5,512.5C 494.569,513.263 492.069,515.597 491,519.5C 487.196,521.146 485.53,523.812 486,527.5C 483.457,528.207 481.291,529.54 479.5,531.5C 466.008,548.491 450.675,563.658 433.5,577C 427.224,580.486 420.558,582.152 413.5,582C 410.758,579.062 407.758,576.562 404.5,574.5C 407.922,567.415 411.255,560.248 414.5,553C 413.549,552.282 413.383,551.449 414,550.5C 415.205,549.929 416.372,549.262 417.5,548.5C 422.217,540.277 427.55,532.443 433.5,525C 432.549,524.282 432.383,523.449 433,522.5C 435.328,521.336 437.162,519.67 438.5,517.5C 445.336,508.096 452.836,498.429 461,488.5C 461,487.167 461,485.833 461,484.5C 461.333,484.833 461.667,485.167 462,485.5C 464.102,483.905 465.602,481.905 466.5,479.5C 468.194,478.473 469.527,477.139 470.5,475.5C 470.517,477.028 471.184,477.528 472.5,477C 494.157,450.186 512.657,421.352 528,390.5C 529.205,388.466 529.372,386.466 528.5,384.5C 527.817,384.863 527.15,385.196 526.5,385.5C 526.751,383.83 527.418,382.33 528.5,381C 525.949,379.484 526.282,378.651 529.5,378.5C 531.92,372.413 534.253,366.247 536.5,360C 535.833,359.667 535.167,359.333 534.5,359C 535.973,358.29 536.64,357.124 536.5,355.5C 537.675,355.719 538.675,355.386 539.5,354.5C 544.405,341.53 552.405,338.864 563.5,346.5C 562.814,348.064 562.981,349.731 564,351.5C 565.338,364.538 564.171,377.205 560.5,389.5 Z"/>
  <path class="fg" fill-rule="evenodd" d="M 259.5,301.5 C 260.693,301.97 261.36,302.97 261.5,304.5C 253.883,335.578 238.549,362.078 215.5,384C 213.025,383.743 213.025,382.743 215.5,381C 215.272,380.601 214.938,380.435 214.5,380.5C 216.094,379.017 217.76,377.517 219.5,376C 218.833,375.333 218.167,374.667 217.5,374C 219.134,373.506 220.801,373.34 222.5,373.5C 222.343,372.127 222.51,370.793 223,369.5C 224.147,370.458 225.147,370.125 226,368.5C 227.459,366.568 228.625,364.568 229.5,362.5C 229.833,363.833 230.167,363.833 230.5,362.5C 237.744,353.029 243.744,342.696 248.5,331.5C 252.646,323.737 255.646,314.737 257.5,304.5C 257.942,303.261 258.609,302.261 259.5,301.5 Z"/>
  <path class="fg" fill-rule="evenodd" d="M 470.5,475.5 C 474.624,471.188 477.791,466.188 480,460.5C 480.667,461.833 481.333,461.833 482,460.5C 483.608,457.228 485.608,454.228 488,451.5C 488.333,449.833 488.667,448.167 489,446.5C 489.333,446.833 489.667,447.167 490,447.5C 495.944,439.124 501.777,430.624 507.5,422C 507.043,421.586 506.709,421.086 506.5,420.5C 509.285,419.386 510.952,417.386 511.5,414.5C 517.435,405.398 522.435,395.731 526.5,385.5C 527.15,385.196 527.817,384.863 528.5,384.5C 529.372,386.466 529.205,388.466 528,390.5C 512.657,421.352 494.157,450.186 472.5,477C 471.184,477.528 470.517,477.028 470.5,475.5 Z"/>
  <path class="fg" fill-rule="evenodd" d="M 560.5,389.5 C 561.872,391.35 561.372,392.683 559,393.5C 556.609,404.326 553.442,414.493 549.5,424C 551.153,426.411 550.487,427.578 547.5,427.5C 545.065,433.7 542.398,439.867 539.5,446C 539.833,446.333 540.167,446.667 540.5,447C 537.313,448.679 535.313,451.346 534.5,455C 534.957,455.414 535.291,455.914 535.5,456.5C 533.841,457.817 532.674,459.483 532,461.5C 531.667,461.167 531.333,460.833 531,460.5C 528.978,465.223 526.478,469.557 523.5,473.5C 522.909,472.849 522.243,472.182 521.5,471.5C 538.342,444.794 550.842,416.127 559,385.5C 559.21,387.058 559.71,388.391 560.5,389.5 Z"/>
  <path class="fg" fill-rule="evenodd" d="M 512.5,599.5 C 512.511,597.983 513.177,596.816 514.5,596C 513.365,595.251 512.365,595.417 511.5,596.5C 500.671,609.756 487.671,620.423 472.5,628.5C 464.966,631.573 462.133,629.24 464,621.5C 468.337,610.153 474.004,599.487 481,589.5C 493.952,572.213 507.285,555.213 521,538.5C 539.172,514.828 555.339,489.828 569.5,463.5C 569.167,463.167 568.833,462.833 568.5,462.5C 567.943,465.983 565.943,467.65 562.5,467.5C 568.985,459.521 572.818,450.521 574,440.5C 574.333,441.167 574.667,441.833 575,442.5C 577.597,431.773 581.264,421.44 586,411.5C 588.238,407.085 591.738,404.419 596.5,403.5C 598.634,403.515 600.634,404.015 602.5,405C 604.393,407.303 606.393,409.47 608.5,411.5C 609.077,422.739 608.077,433.906 605.5,445C 605.905,445.945 606.572,446.612 607.5,447C 606.584,447.374 605.75,447.874 605,448.5C 602.908,455.041 600.741,461.541 598.5,468C 599.308,468.308 599.975,468.808 600.5,469.5C 599.021,472.138 597.188,474.471 595,476.5C 588.015,493.992 579.515,510.158 569.5,525C 570.167,525.333 570.833,525.667 571.5,526C 570.322,526.967 568.989,527.467 567.5,527.5C 556.434,546.407 543.601,564.074 529,580.5C 527.833,582.333 526.667,584.167 525.5,586C 525.833,586.333 526.167,586.667 526.5,587C 525.24,588.113 524.073,588.28 523,587.5C 520.38,592.286 516.88,596.286 512.5,599.5 Z"/>
  <path class="fg" fill-rule="evenodd" d="M 209.5,385.5 C 210.133,385.88 210.8,386.213 211.5,386.5C 211.291,387.086 210.957,387.586 210.5,388C 185.392,405.1 162.059,424.433 140.5,446C 139.552,446.483 138.552,446.649 137.5,446.5C 140.051,441.72 143.384,437.553 147.5,434C 147.167,433.667 146.833,433.333 146.5,433C 148.279,433.979 149.945,433.646 151.5,432C 154.194,427.973 157.527,424.639 161.5,422C 160.289,421.107 160.289,420.274 161.5,419.5C 162.773,419.746 163.94,419.746 165,419.5C 168.051,415.704 171.384,413.038 175,411.5C 176.555,408.945 178.722,407.112 181.5,406C 183.049,404.786 184.215,403.286 185,401.5C 185.414,401.957 185.914,402.291 186.5,402.5C 188.642,399.927 191.308,398.094 194.5,397C 196.394,395.899 197.061,394.566 196.5,393C 201.477,391.503 205.81,389.003 209.5,385.5 Z"/>
  <path class="fg" fill-rule="evenodd" d="M 463.5,409.5 C 455.177,421.468 447.344,433.802 440,446.5C 436.24,450.953 433.24,455.953 431,461.5C 430.667,461.167 430.333,460.833 430,460.5C 427.64,465.24 424.807,469.574 421.5,473.5C 419.626,475.095 418.793,474.761 419,472.5C 433.32,450.509 447.654,428.509 462,406.5C 463.039,407.244 463.539,408.244 463.5,409.5 Z"/>
  <path class="fg" fill-rule="evenodd" d="M 352.5,472.5 C 352.389,471.883 352.056,471.383 351.5,471C 352.931,470.535 354.097,469.701 355,468.5C 356.106,465.274 357.939,462.607 360.5,460.5C 358.034,457.713 358.867,456.046 363,455.5C 367.015,449.967 369.515,443.8 370.5,437C 369.833,436 369.167,435 368.5,434C 369.707,432.7 370.374,431.2 370.5,429.5C 369.325,429.719 368.325,429.386 367.5,428.5C 367.619,426.074 367.953,423.74 368.5,421.5C 369.75,421.423 370.583,420.756 371,419.5C 372.399,422.363 373.399,425.363 374,428.5C 374.263,436.311 372.763,443.811 369.5,451C 364.027,460.125 358.194,468.958 352,477.5C 351.111,478.888 350.611,478.722 350.5,477C 351.414,475.594 352.08,474.094 352.5,472.5 Z"/>
  <path class="fg" fill-rule="evenodd" d="M 624.5,517.5 C 624.5,523.833 624.5,530.167 624.5,536.5C 622.806,544.597 620.472,552.597 617.5,560.5C 607.252,585.49 594.919,608.157 580.5,628.5C 578.138,633.043 575.138,637.21 571.5,641C 572.552,642.716 571.886,643.716 569.5,644C 569.833,644.333 570.167,644.667 570.5,645C 568.667,646.5 566.833,648 565,649.5C 562.322,653.831 559.322,657.831 556,661.5C 551.657,665.676 547.491,670.009 543.5,674.5C 537.169,679.004 531.336,684.004 526,689.5C 525.667,689.167 525.333,688.833 525,688.5C 521.961,690.845 518.961,693.178 516,695.5C 515.667,694.833 515.333,694.167 515,693.5C 510.48,695.049 505.98,696.215 501.5,697C 492.274,693.932 490.107,688.099 495,679.5C 496.147,680.458 497.147,680.125 498,678.5C 502.689,673.312 507.189,667.979 511.5,662.5C 512.977,660.193 514.977,658.36 517.5,657C 516.549,656.282 516.383,655.449 517,654.5C 523.072,650.985 527.239,645.985 529.5,639.5C 530.675,639.719 531.675,639.386 532.5,638.5C 537.504,631.669 542.67,625.002 548,618.5C 548.617,617.551 548.451,616.718 547.5,616C 549.976,614.691 551.976,612.858 553.5,610.5C 559.414,601.747 565.748,591.914 572.5,581C 572.043,580.586 571.709,580.086 571.5,579.5C 573.375,578.591 574.708,577.257 575.5,575.5C 580.95,567.595 585.117,558.928 588,549.5C 588.333,549.833 588.667,550.167 589,550.5C 591.534,547.421 592.034,544.088 590.5,540.5C 591.675,540.719 592.675,540.386 593.5,539.5C 596.059,534.425 598.392,529.259 600.5,524C 600.167,523.667 599.833,523.333 599.5,523C 602.968,519.74 605.968,516.074 608.5,512C 610.392,511.027 612.392,510.36 614.5,510C 613.5,509.667 612.5,509.333 611.5,509C 614.57,509.015 617.57,509.682 620.5,511C 622.628,512.792 623.961,514.958 624.5,517.5 Z"/>
  <path class="fg" fill-rule="evenodd" d="M 347.5,568.5 C 343.753,570.705 339.753,572.371 335.5,573.5C 335.881,575.942 335.214,576.609 333.5,575.5C 331.866,575.968 330.7,576.968 330,578.5C 329.667,577.833 329.333,577.167 329,576.5C 320.324,579.047 311.657,579.047 303,576.5C 302.692,577.308 302.192,577.975 301.5,578.5C 300.655,576.238 299.322,575.571 297.5,576.5C 296.289,575.726 296.289,574.893 297.5,574C 296.473,573.487 295.473,572.987 294.5,572.5C 293.199,571.36 292.032,570.027 291,568.5C 290.068,563.011 290.568,557.677 292.5,552.5C 292.291,551.914 291.957,551.414 291.5,551C 294.977,549.7 296.31,547.367 295.5,544C 302.103,536.626 308.103,528.792 313.5,520.5C 314.474,519.365 315.641,518.365 317,517.5C 319.691,512.554 322.691,508.554 326,505.5C 330.417,499.689 335.084,494.022 340,488.5C 340.492,487.451 340.326,486.451 339.5,485.5C 341.784,484.542 343.784,483.208 345.5,481.5C 346.838,479.887 348.505,479.387 350.5,480C 330.201,503.078 311.701,527.578 295,553.5C 294.107,556.433 293.607,559.433 293.5,562.5C 292.827,566.281 294.161,569.114 297.5,571C 314.715,577.077 331.048,575.243 346.5,565.5C 347.386,566.325 347.719,567.325 347.5,568.5 Z"/>
  <path class="fg" fill-rule="evenodd" d="M 232.5,512.5 C 226.805,519.535 221.471,526.868 216.5,534.5C 217.629,536.529 217.129,536.863 215,535.5C 209.224,543.087 203.724,550.754 198.5,558.5C 196.163,561.843 193.83,565.176 191.5,568.5C 190.596,568.465 189.93,567.965 189.5,567C 202.519,547.143 216.519,527.976 231.5,509.5C 232.365,508.417 233.365,508.251 234.5,509C 233.177,509.816 232.511,510.983 232.5,512.5 Z"/>
  <path class="fg" fill-rule="evenodd" d="M 512.5,599.5 C 507.836,605.83 502.502,611.496 496.5,616.5C 495.167,616.5 494.5,617.167 494.5,618.5C 489.907,621.013 486.241,623.846 483.5,627C 479.162,628.836 474.828,630.67 470.5,632.5C 468.462,633.634 466.462,633.634 464.5,632.5C 463.116,635.133 461.782,635.133 460.5,632.5C 462.748,631.676 462.914,630.676 461,629.5C 460.852,624.928 460.685,620.428 460.5,616C 461.509,614.832 462.509,613.665 463.5,612.5C 462.5,611.667 461.5,610.833 460.5,610C 463.548,609.394 466.048,607.894 468,605.5C 470.844,599.523 474.344,594.023 478.5,589C 476.721,589.979 475.055,589.646 473.5,588C 476.822,587.941 479.656,586.774 482,584.5C 486.334,576.05 492.167,568.217 499.5,561C 498.833,560.667 498.167,560.333 497.5,560C 499.667,558.5 501.833,557 504,555.5C 515.715,539.958 527.215,524.291 538.5,508.5C 539.167,508.5 539.5,508.167 539.5,507.5C 543.012,504.332 544.345,500.499 543.5,496C 545,493.833 546.167,494 547,496.5C 553.124,487.76 558.624,478.594 563.5,469C 562.944,468.617 562.611,468.117 562.5,467.5C 565.943,467.65 567.943,465.983 568.5,462.5C 568.833,462.833 569.167,463.167 569.5,463.5C 555.339,489.828 539.172,514.828 521,538.5C 507.285,555.213 493.952,572.213 481,589.5C 474.004,599.487 468.337,610.153 464,621.5C 462.133,629.24 464.966,631.573 472.5,628.5C 487.671,620.423 500.671,609.756 511.5,596.5C 512.365,595.417 513.365,595.251 514.5,596C 513.177,596.816 512.511,597.983 512.5,599.5 Z"/>
  <path class="fg" fill-rule="evenodd" d="M 177.5,595.5 C 174.923,607.222 172.423,618.888 170,630.5C 168.47,643.521 168.304,656.521 169.5,669.5C 168.71,670.609 168.21,671.942 168,673.5C 167.333,674.833 166.667,674.833 166,673.5C 163.328,644.879 166.995,617.213 177,590.5C 177.494,592.134 177.66,593.801 177.5,595.5 Z"/>
  <path class="fg" fill-rule="evenodd" d="M 133.5,448.5 C 132.448,450.655 133.114,450.988 135.5,449.5C 136.521,450.002 136.688,450.668 136,451.5C 125.957,462.58 116.623,474.247 108,486.5C 77.0708,532.445 64.4041,583.111 70,638.5C 76.4693,682.076 92.3026,721.743 117.5,757.5C 116.528,757.593 115.528,757.926 114.5,758.5C 112.766,756.91 111.6,754.91 111,752.5C 109.951,753.517 108.784,753.684 107.5,753C 108.276,747.583 105.943,743.917 100.5,742C 101.566,740.841 101.233,740.008 99.5,739.5C 99.5775,733.841 97.5775,729.174 93.5,725.5C 94.0431,725.44 94.3764,725.107 94.5,724.5C 93.675,723.614 92.675,723.281 91.5,723.5C 91.6709,721.007 90.6709,719.174 88.5,718C 89.3081,717.692 89.9747,717.192 90.5,716.5C 88.7257,713.285 87.2257,709.952 86,706.5C 85.6667,707.167 85.3333,707.833 85,708.5C 84.6964,706.559 83.8631,704.893 82.5,703.5C 82.8333,702.833 83.1667,702.167 83.5,701.5C 82.2839,700.904 80.9506,700.737 79.5,701C 80.1667,699.667 81.1667,698.667 82.5,698C 79.3101,689.588 75.6434,681.421 71.5,673.5C 71.8457,672.304 72.3457,672.304 73,673.5C 73.2009,670.485 72.8676,667.485 72,664.5C 71.6667,664.833 71.3333,665.167 71,665.5C 70.0775,661.21 69.5775,656.877 69.5,652.5C 64.5623,652.037 64.2289,650.37 68.5,647.5C 65.8134,630.04 65.1467,612.373 66.5,594.5C 66.3333,592.833 66.1667,591.167 66,589.5C 65.6174,590.056 65.1174,590.389 64.5,590.5C 64.7286,588.567 65.5619,586.9 67,585.5C 71.3733,552.785 81.8733,523.119 98.5,496.5C 97.1451,495.325 97.3117,494.325 99,493.5C 99.3333,493.833 99.6667,494.167 100,494.5C 106.022,485.975 111.855,477.308 117.5,468.5C 118.954,467.48 119.287,466.313 118.5,465C 121.115,464.388 122.781,462.888 123.5,460.5C 124.338,460.158 124.672,459.492 124.5,458.5C 126.546,456.721 128.713,455.054 131,453.5C 131.456,452.256 130.956,451.423 129.5,451C 130.736,449.915 132.069,449.082 133.5,448.5 Z"/>
  <path class="fg" fill-rule="evenodd" d="M 169.5,678.5 C 171.957,697.993 176.457,716.993 183,735.5C 183.925,736.047 184.758,736.713 185.5,737.5C 183.712,741.758 185.045,744.592 189.5,746C 188.833,746.333 188.167,746.667 187.5,747C 188.929,749.69 189.929,752.523 190.5,755.5C 190.631,756.376 190.298,757.043 189.5,757.5C 188.667,756.5 187.833,755.5 187,754.5C 179.378,736.386 173.378,717.719 169,698.5C 167.835,691.528 167.502,684.528 168,677.5C 168.383,678.056 168.883,678.389 169.5,678.5 Z"/>
  <path class="fg" fill-rule="evenodd" d="M 194.5,762.5 C 201.03,776.257 209.03,788.924 218.5,800.5C 219.333,802.5 220.167,804.5 221,806.5C 223.629,808.444 225.796,810.777 227.5,813.5C 236.798,824.635 246.298,835.635 256,846.5C 256.772,849.209 257.939,851.709 259.5,854C 260.403,856.83 260.737,859.497 260.5,862C 257.977,863.36 255.977,865.193 254.5,867.5C 249.833,867.5 245.167,867.5 240.5,867.5C 237.323,865.389 233.99,864.222 230.5,864C 229.359,863.259 229.359,862.425 230.5,861.5C 223.734,858.316 217.567,854.316 212,849.5C 211.586,849.957 211.086,850.291 210.5,850.5C 209.828,849.051 209.161,847.718 208.5,846.5C 207.833,845.167 207.167,845.167 206.5,846.5C 205.374,843.473 203.874,843.14 202,845.5C 200.735,843.187 199.235,841.02 197.5,839C 186.18,831.933 176.013,824.1 167,815.5C 163.969,818.108 162.635,817.108 163,812.5C 161.89,810.963 160.39,810.297 158.5,810.5C 158.5,809.5 158.5,808.5 158.5,807.5C 157.448,807.649 156.448,807.483 155.5,807C 154.688,805.177 153.688,803.344 152.5,801.5C 151.826,799.976 150.826,798.642 149.5,797.5C 150.002,796.479 150.668,796.312 151.5,797C 161.018,806.241 170.684,815.241 180.5,824C 198.775,835.943 216.775,848.276 234.5,861C 236.623,861.815 238.623,862.815 240.5,864C 254.282,867.884 258.782,863.05 254,849.5C 243.773,838.06 233.773,826.393 224,814.5C 211.501,798.181 200.501,780.848 191,762.5C 190.333,761.167 190.333,759.833 191,758.5C 191.498,760.544 192.665,761.878 194.5,762.5 Z"/>
  </g>
</svg>
